<svg xmlns="http://www.w3.org/2000/svg" version="1.1" xmlns:xlink="http://www.w3.org/1999/xlink" xmlns:svgjs="http://svgjs.dev/svgjs" width="1920" height="160" preserveAspectRatio="none" viewBox="0 0 1920 160"><g mask="url(&quot;#SvgjsMask1065&quot;)" fill="none"><rect width="1920" height="160" x="0" y="0" fill="rgba(247, 247, 247, 1)"></rect><path d="M789 45L906 162" stroke-width="8" stroke="url(&quot;#SvgjsLinearGradient1066&quot;)" stroke-linecap="round" class="TopLeft"></path><path d="M1178 148L1125 95" stroke-width="10" stroke="url(&quot;#SvgjsLinearGradient1067&quot;)" stroke-linecap="round" class="TopLeft"></path><path d="M1265 69L1333 137" stroke-width="6" stroke="url(&quot;#SvgjsLinearGradient1067&quot;)" stroke-linecap="round" class="TopLeft"></path><path d="M767 102L816 151" stroke-width="10" stroke="url(&quot;#SvgjsLinearGradient1068&quot;)" stroke-linecap="round" class="BottomRight"></path><path d="M693 92L591 -10" stroke-width="6" stroke="url(&quot;#SvgjsLinearGradient1069&quot;)" stroke-linecap="round" class="TopLeft"></path><path d="M839 38L788 -13" stroke-width="6" stroke="url(&quot;#SvgjsLinearGradient1069&quot;)" stroke-linecap="round" class="TopLeft"></path><path d="M1372 101L1428 157" stroke-width="6" stroke="url(&quot;#SvgjsLinearGradient1068&quot;)" stroke-linecap="round" class="BottomRight"></path><path d="M1084 2L1040 -42" stroke-width="10" stroke="url(&quot;#SvgjsLinearGradient1070&quot;)" stroke-linecap="round" class="BottomRight"></path><path d="M1724 68L1833 177" stroke-width="10" stroke="url(&quot;#SvgjsLinearGradient1069&quot;)" stroke-linecap="round" class="TopLeft"></path><path d="M1454 139L1357 42" stroke-width="10" stroke="url(&quot;#SvgjsLinearGradient1069&quot;)" stroke-linecap="round" class="TopLeft"></path><path d="M1762 47L1843 128" stroke-width="6" stroke="url(&quot;#SvgjsLinearGradient1066&quot;)" stroke-linecap="round" class="TopLeft"></path><path d="M562 13L681 132" stroke-width="10" stroke="url(&quot;#SvgjsLinearGradient1070&quot;)" stroke-linecap="round" class="BottomRight"></path><path d="M1104 7L1177 80" stroke-width="6" stroke="url(&quot;#SvgjsLinearGradient1070&quot;)" stroke-linecap="round" class="BottomRight"></path><path d="M588 59L540 11" stroke-width="8" stroke="url(&quot;#SvgjsLinearGradient1071&quot;)" stroke-linecap="round" class="BottomRight"></path><path d="M799 133L904 238" stroke-width="10" stroke="url(&quot;#SvgjsLinearGradient1070&quot;)" stroke-linecap="round" class="BottomRight"></path><path d="M1401 47L1331 -23" stroke-width="10" stroke="url(&quot;#SvgjsLinearGradient1071&quot;)" stroke-linecap="round" class="BottomRight"></path><path d="M1724 155L1618 49" stroke-width="8" stroke="url(&quot;#SvgjsLinearGradient1068&quot;)" stroke-linecap="round" class="BottomRight"></path><path d="M1116 159L1032 75" stroke-width="10" stroke="url(&quot;#SvgjsLinearGradient1066&quot;)" stroke-linecap="round" class="TopLeft"></path><path d="M119 65L175 121" stroke-width="10" stroke="url(&quot;#SvgjsLinearGradient1071&quot;)" stroke-linecap="round" class="BottomRight"></path><path d="M694 147L610 63" stroke-width="10" stroke="url(&quot;#SvgjsLinearGradient1071&quot;)" stroke-linecap="round" class="BottomRight"></path><path d="M827 31L916 120" stroke-width="6" stroke="url(&quot;#SvgjsLinearGradient1068&quot;)" stroke-linecap="round" class="BottomRight"></path><path d="M70 63L-41 -48" stroke-width="8" stroke="url(&quot;#SvgjsLinearGradient1071&quot;)" stroke-linecap="round" class="BottomRight"></path><path d="M1738 29L1843 134" stroke-width="10" stroke="url(&quot;#SvgjsLinearGradient1067&quot;)" stroke-linecap="round" class="TopLeft"></path><path d="M1548 89L1665 206" stroke-width="10" stroke="url(&quot;#SvgjsLinearGradient1068&quot;)" stroke-linecap="round" class="BottomRight"></path><path d="M1197 97L1255 155" stroke-width="6" stroke="url(&quot;#SvgjsLinearGradient1070&quot;)" stroke-linecap="round" class="BottomRight"></path><path d="M798 10L850 62" stroke-width="6" stroke="url(&quot;#SvgjsLinearGradient1071&quot;)" stroke-linecap="round" class="BottomRight"></path><path d="M1809 56L1887 134" stroke-width="10" stroke="url(&quot;#SvgjsLinearGradient1068&quot;)" stroke-linecap="round" class="BottomRight"></path><path d="M936 51L1013 128" stroke-width="8" stroke="url(&quot;#SvgjsLinearGradient1068&quot;)" stroke-linecap="round" class="BottomRight"></path><path d="M9 79L66 136" stroke-width="8" stroke="url(&quot;#SvgjsLinearGradient1069&quot;)" stroke-linecap="round" class="TopLeft"></path><path d="M1390 16L1302 -72" stroke-width="8" stroke="url(&quot;#SvgjsLinearGradient1070&quot;)" stroke-linecap="round" class="BottomRight"></path><path d="M169 62L281 174" stroke-width="8" stroke="url(&quot;#SvgjsLinearGradient1070&quot;)" stroke-linecap="round" class="BottomRight"></path><path d="M1144 135L1204 195" stroke-width="10" stroke="url(&quot;#SvgjsLinearGradient1070&quot;)" stroke-linecap="round" class="BottomRight"></path><path d="M1393 158L1304 69" stroke-width="8" stroke="url(&quot;#SvgjsLinearGradient1066&quot;)" stroke-linecap="round" class="TopLeft"></path><path d="M1345 30L1275 -40" stroke-width="10" stroke="url(&quot;#SvgjsLinearGradient1068&quot;)" stroke-linecap="round" class="BottomRight"></path><path d="M1838 129L1771 62" stroke-width="6" stroke="url(&quot;#SvgjsLinearGradient1071&quot;)" stroke-linecap="round" class="BottomRight"></path><path d="M1043 112L1129 198" stroke-width="6" stroke="url(&quot;#SvgjsLinearGradient1068&quot;)" stroke-linecap="round" class="BottomRight"></path><path d="M77 126L-41 8" stroke-width="8" stroke="url(&quot;#SvgjsLinearGradient1070&quot;)" stroke-linecap="round" class="BottomRight"></path><path d="M944 113L995 164" stroke-width="10" stroke="url(&quot;#SvgjsLinearGradient1067&quot;)" stroke-linecap="round" class="TopLeft"></path><path d="M448 156L512 220" stroke-width="10" stroke="url(&quot;#SvgjsLinearGradient1068&quot;)" stroke-linecap="round" class="BottomRight"></path><path d="M1917 81L1810 -26" stroke-width="6" stroke="url(&quot;#SvgjsLinearGradient1066&quot;)" stroke-linecap="round" class="TopLeft"></path><path d="M606 131L554 79" stroke-width="6" stroke="url(&quot;#SvgjsLinearGradient1069&quot;)" stroke-linecap="round" class="TopLeft"></path><path d="M1199 31L1121 -47" stroke-width="10" stroke="url(&quot;#SvgjsLinearGradient1066&quot;)" stroke-linecap="round" class="TopLeft"></path><path d="M1341 136L1399 194" stroke-width="6" stroke="url(&quot;#SvgjsLinearGradient1067&quot;)" stroke-linecap="round" class="TopLeft"></path><path d="M1053 37L999 -17" stroke-width="8" stroke="url(&quot;#SvgjsLinearGradient1071&quot;)" stroke-linecap="round" class="BottomRight"></path><path d="M525 115L611 201" stroke-width="8" stroke="url(&quot;#SvgjsLinearGradient1069&quot;)" stroke-linecap="round" class="TopLeft"></path><path d="M367 145L259 37" stroke-width="6" stroke="url(&quot;#SvgjsLinearGradient1066&quot;)" stroke-linecap="round" class="TopLeft"></path><path d="M1587 135L1693 241" stroke-width="6" stroke="url(&quot;#SvgjsLinearGradient1068&quot;)" stroke-linecap="round" class="BottomRight"></path><path d="M524 5L622 103" stroke-width="6" stroke="url(&quot;#SvgjsLinearGradient1071&quot;)" stroke-linecap="round" class="BottomRight"></path><path d="M99 21L186 108" stroke-width="8" stroke="url(&quot;#SvgjsLinearGradient1066&quot;)" stroke-linecap="round" class="TopLeft"></path></g><defs><mask id="SvgjsMask1065"><rect width="1920" height="160" fill="#ffffff"></rect></mask><linearGradient x1="100%" y1="100%" x2="0%" y2="0%" id="SvgjsLinearGradient1066"><stop stop-color="rgba(185, 223, 233, 0)" offset="0"></stop><stop stop-color="rgba(185, 223, 233, 1)" offset="1"></stop></linearGradient><linearGradient x1="100%" y1="100%" x2="0%" y2="0%" id="SvgjsLinearGradient1067"><stop stop-color="rgba(138, 225, 245, 0)" offset="0"></stop><stop stop-color="rgba(138, 225, 245, 1)" offset="1"></stop></linearGradient><linearGradient x1="0%" y1="0%" x2="100%" y2="100%" id="SvgjsLinearGradient1068"><stop stop-color="rgba(138, 225, 245, 0)" offset="0"></stop><stop stop-color="rgba(138, 225, 245, 1)" offset="1"></stop></linearGradient><linearGradient x1="100%" y1="100%" x2="0%" y2="0%" id="SvgjsLinearGradient1069"><stop stop-color="rgba(25, 145, 208, 0)" offset="0"></stop><stop stop-color="rgba(25, 145, 208, 1)" offset="1"></stop></linearGradient><linearGradient x1="0%" y1="0%" x2="100%" y2="100%" id="SvgjsLinearGradient1070"><stop stop-color="rgba(185, 223, 233, 0)" offset="0"></stop><stop stop-color="rgba(185, 223, 233, 1)" offset="1"></stop></linearGradient><linearGradient x1="0%" y1="0%" x2="100%" y2="100%" id="SvgjsLinearGradient1071"><stop stop-color="rgba(25, 145, 208, 0)" offset="0"></stop><stop stop-color="rgba(25, 145, 208, 1)" offset="1"></stop></linearGradient></defs></svg>