<svg xmlns="http://www.w3.org/2000/svg" version="1.1" xmlns:xlink="http://www.w3.org/1999/xlink" xmlns:svgjs="http://svgjs.dev/svgjs" width="1920" height="160" preserveAspectRatio="none" viewBox="0 0 1920 160"><g mask="url(&quot;#SvgjsMask1157&quot;)" fill="none"><rect width="1920" height="160" x="0" y="0" fill="rgba(241, 241, 241, 1)"></rect><path d="M1393 54L1459 120" stroke-width="10" stroke="url(&quot;#SvgjsLinearGradient1158&quot;)" stroke-linecap="round" class="BottomRight"></path><path d="M479 87L375 -17" stroke-width="6" stroke="url(&quot;#SvgjsLinearGradient1158&quot;)" stroke-linecap="round" class="BottomRight"></path><path d="M963 100L891 28" stroke-width="10" stroke="url(&quot;#SvgjsLinearGradient1159&quot;)" stroke-linecap="round" class="TopLeft"></path><path d="M742 144L831 233" stroke-width="6" stroke="url(&quot;#SvgjsLinearGradient1159&quot;)" stroke-linecap="round" class="TopLeft"></path><path d="M312 114L246 48" stroke-width="6" stroke="url(&quot;#SvgjsLinearGradient1158&quot;)" stroke-linecap="round" class="BottomRight"></path><path d="M1788 136L1705 53" stroke-width="8" stroke="url(&quot;#SvgjsLinearGradient1159&quot;)" stroke-linecap="round" class="TopLeft"></path><path d="M1351 135L1291 75" stroke-width="8" stroke="url(&quot;#SvgjsLinearGradient1159&quot;)" stroke-linecap="round" class="TopLeft"></path><path d="M1341 96L1410 165" stroke-width="8" stroke="url(&quot;#SvgjsLinearGradient1158&quot;)" stroke-linecap="round" class="BottomRight"></path><path d="M431 107L548 224" stroke-width="8" stroke="url(&quot;#SvgjsLinearGradient1158&quot;)" stroke-linecap="round" class="BottomRight"></path><path d="M1689 82L1633 26" stroke-width="10" stroke="url(&quot;#SvgjsLinearGradient1158&quot;)" stroke-linecap="round" class="BottomRight"></path><path d="M1057 117L1176 236" stroke-width="10" stroke="url(&quot;#SvgjsLinearGradient1158&quot;)" stroke-linecap="round" class="BottomRight"></path><path d="M651 115L769 233" stroke-width="10" stroke="url(&quot;#SvgjsLinearGradient1159&quot;)" stroke-linecap="round" class="TopLeft"></path><path d="M1245 114L1165 34" stroke-width="8" stroke="url(&quot;#SvgjsLinearGradient1159&quot;)" stroke-linecap="round" class="TopLeft"></path><path d="M1323 103L1215 -5" stroke-width="10" stroke="url(&quot;#SvgjsLinearGradient1158&quot;)" stroke-linecap="round" class="BottomRight"></path><path d="M878 145L835 102" stroke-width="8" stroke="url(&quot;#SvgjsLinearGradient1159&quot;)" stroke-linecap="round" class="TopLeft"></path><path d="M1491 27L1438 -26" stroke-width="6" stroke="url(&quot;#SvgjsLinearGradient1158&quot;)" stroke-linecap="round" class="BottomRight"></path><path d="M427 147L516 236" stroke-width="10" stroke="url(&quot;#SvgjsLinearGradient1158&quot;)" stroke-linecap="round" class="BottomRight"></path><path d="M654 125L714 185" stroke-width="8" stroke="url(&quot;#SvgjsLinearGradient1159&quot;)" stroke-linecap="round" class="TopLeft"></path><path d="M993 85L1109 201" stroke-width="8" stroke="url(&quot;#SvgjsLinearGradient1159&quot;)" stroke-linecap="round" class="TopLeft"></path><path d="M152 80L58 -14" stroke-width="8" stroke="url(&quot;#SvgjsLinearGradient1158&quot;)" stroke-linecap="round" class="BottomRight"></path><path d="M1842 5L1755 -82" stroke-width="8" stroke="url(&quot;#SvgjsLinearGradient1159&quot;)" stroke-linecap="round" class="TopLeft"></path><path d="M907 68L799 -40" stroke-width="10" stroke="url(&quot;#SvgjsLinearGradient1159&quot;)" stroke-linecap="round" class="TopLeft"></path><path d="M1327 160L1212 45" stroke-width="10" stroke="url(&quot;#SvgjsLinearGradient1158&quot;)" stroke-linecap="round" class="BottomRight"></path><path d="M1630 97L1691 158" stroke-width="10" stroke="url(&quot;#SvgjsLinearGradient1158&quot;)" stroke-linecap="round" class="BottomRight"></path><path d="M1582 103L1669 190" stroke-width="8" stroke="url(&quot;#SvgjsLinearGradient1158&quot;)" stroke-linecap="round" class="BottomRight"></path><path d="M544 97L490 43" stroke-width="10" stroke="url(&quot;#SvgjsLinearGradient1158&quot;)" stroke-linecap="round" class="BottomRight"></path><path d="M1597 143L1487 33" stroke-width="8" stroke="url(&quot;#SvgjsLinearGradient1159&quot;)" stroke-linecap="round" class="TopLeft"></path><path d="M1713 120L1606 13" stroke-width="10" stroke="url(&quot;#SvgjsLinearGradient1159&quot;)" stroke-linecap="round" class="TopLeft"></path><path d="M556 135L646 225" stroke-width="8" stroke="url(&quot;#SvgjsLinearGradient1158&quot;)" stroke-linecap="round" class="BottomRight"></path><path d="M1434 46L1484 96" stroke-width="6" stroke="url(&quot;#SvgjsLinearGradient1158&quot;)" stroke-linecap="round" class="BottomRight"></path><path d="M853 119L947 213" stroke-width="8" stroke="url(&quot;#SvgjsLinearGradient1159&quot;)" stroke-linecap="round" class="TopLeft"></path><path d="M1908 85L1991 168" stroke-width="10" stroke="url(&quot;#SvgjsLinearGradient1159&quot;)" stroke-linecap="round" class="TopLeft"></path><path d="M1297 58L1248 9" stroke-width="6" stroke="url(&quot;#SvgjsLinearGradient1159&quot;)" stroke-linecap="round" class="TopLeft"></path><path d="M28 113L110 195" stroke-width="10" stroke="url(&quot;#SvgjsLinearGradient1159&quot;)" stroke-linecap="round" class="TopLeft"></path><path d="M1402 120L1450 168" stroke-width="10" stroke="url(&quot;#SvgjsLinearGradient1159&quot;)" stroke-linecap="round" class="TopLeft"></path><path d="M183 80L289 186" stroke-width="10" stroke="url(&quot;#SvgjsLinearGradient1159&quot;)" stroke-linecap="round" class="TopLeft"></path><path d="M794 2L713 -79" stroke-width="10" stroke="url(&quot;#SvgjsLinearGradient1159&quot;)" stroke-linecap="round" class="TopLeft"></path><path d="M1602 27L1548 -27" stroke-width="10" stroke="url(&quot;#SvgjsLinearGradient1158&quot;)" stroke-linecap="round" class="BottomRight"></path><path d="M227 23L335 131" stroke-width="10" stroke="url(&quot;#SvgjsLinearGradient1158&quot;)" stroke-linecap="round" class="BottomRight"></path><path d="M1552 131L1649 228" stroke-width="8" stroke="url(&quot;#SvgjsLinearGradient1158&quot;)" stroke-linecap="round" class="BottomRight"></path><path d="M638 17L520 -101" stroke-width="6" stroke="url(&quot;#SvgjsLinearGradient1158&quot;)" stroke-linecap="round" class="BottomRight"></path><path d="M1218 67L1118 -33" stroke-width="8" stroke="url(&quot;#SvgjsLinearGradient1158&quot;)" stroke-linecap="round" class="BottomRight"></path><path d="M1618 154L1513 49" stroke-width="6" stroke="url(&quot;#SvgjsLinearGradient1159&quot;)" stroke-linecap="round" class="TopLeft"></path><path d="M1003 66L1096 159" stroke-width="8" stroke="url(&quot;#SvgjsLinearGradient1159&quot;)" stroke-linecap="round" class="TopLeft"></path><path d="M636 32L725 121" stroke-width="8" stroke="url(&quot;#SvgjsLinearGradient1159&quot;)" stroke-linecap="round" class="TopLeft"></path><path d="M210 38L305 133" stroke-width="6" stroke="url(&quot;#SvgjsLinearGradient1158&quot;)" stroke-linecap="round" class="BottomRight"></path><path d="M673 91L790 208" stroke-width="10" stroke="url(&quot;#SvgjsLinearGradient1158&quot;)" stroke-linecap="round" class="BottomRight"></path><path d="M1211 90L1167 46" stroke-width="8" stroke="url(&quot;#SvgjsLinearGradient1158&quot;)" stroke-linecap="round" class="BottomRight"></path><path d="M664 83L586 5" stroke-width="8" stroke="url(&quot;#SvgjsLinearGradient1158&quot;)" stroke-linecap="round" class="BottomRight"></path></g><defs><mask id="SvgjsMask1157"><rect width="1920" height="160" fill="#ffffff"></rect></mask><linearGradient x1="0%" y1="0%" x2="100%" y2="100%" id="SvgjsLinearGradient1158"><stop stop-color="rgba(152, 201, 255, 0)" offset="0"></stop><stop stop-color="rgba(152, 201, 255, 1)" offset="1"></stop></linearGradient><linearGradient x1="100%" y1="100%" x2="0%" y2="0%" id="SvgjsLinearGradient1159"><stop stop-color="rgba(152, 201, 255, 0)" offset="0"></stop><stop stop-color="rgba(152, 201, 255, 1)" offset="1"></stop></linearGradient></defs></svg>