<svg xmlns="http://www.w3.org/2000/svg" version="1.1" xmlns:xlink="http://www.w3.org/1999/xlink" xmlns:svgjs="http://svgjs.dev/svgjs" width="1920" height="160" preserveAspectRatio="none" viewBox="0 0 1920 160"><g mask="url(&quot;#SvgjsMask1195&quot;)" fill="none"><rect width="1920" height="160" x="0" y="0" fill="rgba(241, 241, 241, 1)"></rect><path d="M1736 60L1784 108" stroke-width="10" stroke="url(&quot;#SvgjsLinearGradient1196&quot;)" stroke-linecap="round" class="TopLeft"></path><path d="M524 44L435 -45" stroke-width="10" stroke="url(&quot;#SvgjsLinearGradient1196&quot;)" stroke-linecap="round" class="TopLeft"></path><path d="M1616 28L1519 -69" stroke-width="10" stroke="url(&quot;#SvgjsLinearGradient1197&quot;)" stroke-linecap="round" class="TopLeft"></path><path d="M1338 148L1401 211" stroke-width="8" stroke="url(&quot;#SvgjsLinearGradient1198&quot;)" stroke-linecap="round" class="TopLeft"></path><path d="M336 6L289 -41" stroke-width="8" stroke="url(&quot;#SvgjsLinearGradient1199&quot;)" stroke-linecap="round" class="BottomRight"></path><path d="M1569 158L1483 72" stroke-width="6" stroke="url(&quot;#SvgjsLinearGradient1198&quot;)" stroke-linecap="round" class="TopLeft"></path><path d="M129 10L22 -97" stroke-width="6" stroke="url(&quot;#SvgjsLinearGradient1199&quot;)" stroke-linecap="round" class="BottomRight"></path><path d="M1407 108L1291 -8" stroke-width="8" stroke="url(&quot;#SvgjsLinearGradient1198&quot;)" stroke-linecap="round" class="TopLeft"></path><path d="M453 19L342 -92" stroke-width="10" stroke="url(&quot;#SvgjsLinearGradient1197&quot;)" stroke-linecap="round" class="TopLeft"></path><path d="M942 126L830 14" stroke-width="8" stroke="url(&quot;#SvgjsLinearGradient1199&quot;)" stroke-linecap="round" class="BottomRight"></path><path d="M1782 5L1707 -70" stroke-width="6" stroke="url(&quot;#SvgjsLinearGradient1197&quot;)" stroke-linecap="round" class="TopLeft"></path><path d="M1195 145L1130 80" stroke-width="8" stroke="url(&quot;#SvgjsLinearGradient1200&quot;)" stroke-linecap="round" class="BottomRight"></path><path d="M295 133L188 26" stroke-width="8" stroke="url(&quot;#SvgjsLinearGradient1198&quot;)" stroke-linecap="round" class="TopLeft"></path><path d="M1253 105L1153 5" stroke-width="10" stroke="url(&quot;#SvgjsLinearGradient1196&quot;)" stroke-linecap="round" class="TopLeft"></path><path d="M555 131L473 49" stroke-width="6" stroke="url(&quot;#SvgjsLinearGradient1198&quot;)" stroke-linecap="round" class="TopLeft"></path><path d="M517 58L577 118" stroke-width="8" stroke="url(&quot;#SvgjsLinearGradient1199&quot;)" stroke-linecap="round" class="BottomRight"></path><path d="M734 102L688 56" stroke-width="10" stroke="url(&quot;#SvgjsLinearGradient1198&quot;)" stroke-linecap="round" class="TopLeft"></path><path d="M1109 122L1155 168" stroke-width="10" stroke="url(&quot;#SvgjsLinearGradient1197&quot;)" stroke-linecap="round" class="TopLeft"></path><path d="M556 104L461 9" stroke-width="8" stroke="url(&quot;#SvgjsLinearGradient1197&quot;)" stroke-linecap="round" class="TopLeft"></path><path d="M85 62L35 12" stroke-width="6" stroke="url(&quot;#SvgjsLinearGradient1197&quot;)" stroke-linecap="round" class="TopLeft"></path><path d="M1438 41L1510 113" stroke-width="6" stroke="url(&quot;#SvgjsLinearGradient1201&quot;)" stroke-linecap="round" class="BottomRight"></path><path d="M735 89L659 13" stroke-width="10" stroke="url(&quot;#SvgjsLinearGradient1199&quot;)" stroke-linecap="round" class="BottomRight"></path><path d="M1808 138L1883 213" stroke-width="10" stroke="url(&quot;#SvgjsLinearGradient1196&quot;)" stroke-linecap="round" class="TopLeft"></path><path d="M892 17L773 -102" stroke-width="8" stroke="url(&quot;#SvgjsLinearGradient1201&quot;)" stroke-linecap="round" class="BottomRight"></path><path d="M415 140L334 59" stroke-width="10" stroke="url(&quot;#SvgjsLinearGradient1199&quot;)" stroke-linecap="round" class="BottomRight"></path><path d="M1351 63L1446 158" stroke-width="6" stroke="url(&quot;#SvgjsLinearGradient1197&quot;)" stroke-linecap="round" class="TopLeft"></path><path d="M324 133L209 18" stroke-width="10" stroke="url(&quot;#SvgjsLinearGradient1201&quot;)" stroke-linecap="round" class="BottomRight"></path><path d="M934 117L995 178" stroke-width="10" stroke="url(&quot;#SvgjsLinearGradient1200&quot;)" stroke-linecap="round" class="BottomRight"></path><path d="M828 35L771 -22" stroke-width="6" stroke="url(&quot;#SvgjsLinearGradient1199&quot;)" stroke-linecap="round" class="BottomRight"></path><path d="M435 110L524 199" stroke-width="8" stroke="url(&quot;#SvgjsLinearGradient1200&quot;)" stroke-linecap="round" class="BottomRight"></path><path d="M1572 76L1659 163" stroke-width="8" stroke="url(&quot;#SvgjsLinearGradient1196&quot;)" stroke-linecap="round" class="TopLeft"></path><path d="M342 155L452 265" stroke-width="6" stroke="url(&quot;#SvgjsLinearGradient1200&quot;)" stroke-linecap="round" class="BottomRight"></path><path d="M1322 43L1236 -43" stroke-width="10" stroke="url(&quot;#SvgjsLinearGradient1196&quot;)" stroke-linecap="round" class="TopLeft"></path><path d="M1660 141L1576 57" stroke-width="6" stroke="url(&quot;#SvgjsLinearGradient1201&quot;)" stroke-linecap="round" class="BottomRight"></path><path d="M1032 14L1102 84" stroke-width="6" stroke="url(&quot;#SvgjsLinearGradient1199&quot;)" stroke-linecap="round" class="BottomRight"></path><path d="M152 96L248 192" stroke-width="6" stroke="url(&quot;#SvgjsLinearGradient1197&quot;)" stroke-linecap="round" class="TopLeft"></path><path d="M944 31L899 -14" stroke-width="8" stroke="url(&quot;#SvgjsLinearGradient1199&quot;)" stroke-linecap="round" class="BottomRight"></path><path d="M1644 71L1739 166" stroke-width="8" stroke="url(&quot;#SvgjsLinearGradient1199&quot;)" stroke-linecap="round" class="BottomRight"></path><path d="M1848 141L1929 222" stroke-width="8" stroke="url(&quot;#SvgjsLinearGradient1200&quot;)" stroke-linecap="round" class="BottomRight"></path><path d="M664 35L723 94" stroke-width="6" stroke="url(&quot;#SvgjsLinearGradient1197&quot;)" stroke-linecap="round" class="TopLeft"></path><path d="M863 18L960 115" stroke-width="8" stroke="url(&quot;#SvgjsLinearGradient1196&quot;)" stroke-linecap="round" class="TopLeft"></path><path d="M473 159L533 219" stroke-width="8" stroke="url(&quot;#SvgjsLinearGradient1198&quot;)" stroke-linecap="round" class="TopLeft"></path><path d="M1719 62L1810 153" stroke-width="10" stroke="url(&quot;#SvgjsLinearGradient1200&quot;)" stroke-linecap="round" class="BottomRight"></path><path d="M1810 136L1865 191" stroke-width="8" stroke="url(&quot;#SvgjsLinearGradient1196&quot;)" stroke-linecap="round" class="TopLeft"></path><path d="M897 105L1006 214" stroke-width="10" stroke="url(&quot;#SvgjsLinearGradient1197&quot;)" stroke-linecap="round" class="TopLeft"></path><path d="M1700 38L1612 -50" stroke-width="10" stroke="url(&quot;#SvgjsLinearGradient1201&quot;)" stroke-linecap="round" class="BottomRight"></path><path d="M160 152L252 244" stroke-width="6" stroke="url(&quot;#SvgjsLinearGradient1198&quot;)" stroke-linecap="round" class="TopLeft"></path><path d="M1302 9L1245 -48" stroke-width="10" stroke="url(&quot;#SvgjsLinearGradient1199&quot;)" stroke-linecap="round" class="BottomRight"></path><path d="M1409 157L1357 105" stroke-width="6" stroke="url(&quot;#SvgjsLinearGradient1200&quot;)" stroke-linecap="round" class="BottomRight"></path></g><defs><mask id="SvgjsMask1195"><rect width="1920" height="160" fill="#ffffff"></rect></mask><linearGradient x1="100%" y1="100%" x2="0%" y2="0%" id="SvgjsLinearGradient1196"><stop stop-color="rgba(185, 223, 233, 0)" offset="0"></stop><stop stop-color="rgba(185, 223, 233, 1)" offset="1"></stop></linearGradient><linearGradient x1="100%" y1="100%" x2="0%" y2="0%" id="SvgjsLinearGradient1197"><stop stop-color="rgba(138, 225, 245, 0)" offset="0"></stop><stop stop-color="rgba(138, 225, 245, 1)" offset="1"></stop></linearGradient><linearGradient x1="100%" y1="100%" x2="0%" y2="0%" id="SvgjsLinearGradient1198"><stop stop-color="rgba(25, 145, 208, 0)" offset="0"></stop><stop stop-color="rgba(25, 145, 208, 1)" offset="1"></stop></linearGradient><linearGradient x1="0%" y1="0%" x2="100%" y2="100%" id="SvgjsLinearGradient1199"><stop stop-color="rgba(138, 225, 245, 0)" offset="0"></stop><stop stop-color="rgba(138, 225, 245, 1)" offset="1"></stop></linearGradient><linearGradient x1="0%" y1="0%" x2="100%" y2="100%" id="SvgjsLinearGradient1200"><stop stop-color="rgba(185, 223, 233, 0)" offset="0"></stop><stop stop-color="rgba(185, 223, 233, 1)" offset="1"></stop></linearGradient><linearGradient x1="0%" y1="0%" x2="100%" y2="100%" id="SvgjsLinearGradient1201"><stop stop-color="rgba(25, 145, 208, 0)" offset="0"></stop><stop stop-color="rgba(25, 145, 208, 1)" offset="1"></stop></linearGradient></defs></svg>